<?xml version="1.0" encoding="utf-8"?>
<!-- Generator: Adobe Illustrator 25.2.1, SVG Export Plug-In . SVG Version: 6.00 Build 0)  -->
<svg version="1.1" id="Layer_1" xmlns="http://www.w3.org/2000/svg" xmlns:xlink="http://www.w3.org/1999/xlink" x="0px" y="0px"
	 viewBox="0 0 202.63 180.79" style="enable-background:new 0 0 202.63 180.79;" xml:space="preserve">
<style type="text/css">
	.st0{fill:url(#SVGID_1_);}
	.st1{fill:url(#SVGID_2_);}
	.st2{fill:url(#SVGID_3_);}
	.st3{fill:#746042;}
	.st4{fill:#BF9A74;}
	.st5{fill:#9E7C64;}
	.st6{fill:#E2BF80;}
	.st7{fill:#A8865D;}
	.st8{fill:#231F20;}
</style>
<g id="Layer_1_1_">
</g>
<g id="Layer_2_1_">
	<g>
		
			<linearGradient id="SVGID_1_" gradientUnits="userSpaceOnUse" x1="110.3907" y1="194.4714" x2="51.3926" y2="9.6683" gradientTransform="matrix(1 0 0 -1 0 181.8898)">
			<stop  offset="0" style="stop-color:#A0854E"/>
			<stop  offset="1" style="stop-color:#A07F53"/>
		</linearGradient>
		<polygon class="st0" points="148.76,177.7 4.25,162.57 4.25,9.39 148.76,11.76 		"/>
		
			<linearGradient id="SVGID_2_" gradientUnits="userSpaceOnUse" x1="144.6588" y1="163.0157" x2="195.2175" y2="32.7026" gradientTransform="matrix(1 0 0 -1 0 181.8898)">
			<stop  offset="0" style="stop-color:#C8A566"/>
			<stop  offset="1" style="stop-color:#CBA560"/>
		</linearGradient>
		<polygon class="st1" points="148.76,177.7 195.24,141.78 197.74,7.46 148.76,11.76 		"/>
		
			<linearGradient id="SVGID_3_" gradientUnits="userSpaceOnUse" x1="98.6821" y1="186.8455" x2="105.473" y2="147.6438" gradientTransform="matrix(1 0 0 -1 0 181.8898)">
			<stop  offset="5.785389e-03" style="stop-color:#E4B865"/>
			<stop  offset="1" style="stop-color:#D6B786"/>
		</linearGradient>
		<polygon class="st2" points="4.25,9.39 148.76,11.76 197.74,7.46 84.51,5.08 		"/>
		<polygon class="st3" points="67.44,10.43 87.53,10.76 87.53,45.48 67.44,45.48 		"/>
		<polygon class="st4" points="87.53,10.76 67.44,10.43 117.51,5.77 135.86,6.16 		"/>
		<polygon class="st5" points="174.1,9.54 174.1,42.13 180.62,41 180.62,8.96 		"/>
		<polygon class="st6" points="171.47,135.83 171.47,160.15 177.99,155.11 177.99,131.19 		"/>
		<g>
			<polygon class="st7" points="48.88,159.63 11.9,156.21 11.9,123.14 48.88,125.71 			"/>
			<path class="st8" d="M49.38,160.18l-37.98-3.52v-34.07l37.98,2.64V160.18z M12.4,155.75l35.97,3.33v-32.9l-35.97-2.5
				C12.41,123.68,12.41,155.75,12.4,155.75z"/>
		</g>
		<g>
			<path class="st8" d="M43.88,132.13c-0.02,0-0.04,0-0.05,0l-27.49-2.86c-0.28-0.03-0.48-0.28-0.45-0.55
				c0.03-0.28,0.28-0.48,0.55-0.45l27.49,2.86c0.28,0.03,0.48,0.28,0.45,0.55C44.35,131.94,44.13,132.13,43.88,132.13z"/>
			<path class="st8" d="M43.62,137.83c-0.02,0-0.03,0-0.05,0l-27.26-2.78c-0.28-0.03-0.48-0.27-0.45-0.55s0.27-0.47,0.55-0.45
				l27.26,2.78c0.28,0.03,0.48,0.27,0.45,0.55C44.09,137.64,43.87,137.83,43.62,137.83z"/>
			<path class="st8" d="M38.76,142.98c-0.02,0-0.03,0-0.05,0l-22.44-2.24c-0.28-0.03-0.48-0.27-0.45-0.55
				c0.03-0.28,0.27-0.47,0.55-0.45l22.44,2.24c0.28,0.03,0.48,0.27,0.45,0.55C39.23,142.79,39.01,142.98,38.76,142.98z"/>
			<path class="st8" d="M38.52,148.51c-0.02,0-0.03,0-0.05,0l-22.24-2.17c-0.28-0.03-0.48-0.27-0.45-0.55
				c0.03-0.28,0.27-0.47,0.55-0.45l22.24,2.17c0.28,0.03,0.48,0.27,0.45,0.55C39,148.32,38.78,148.51,38.52,148.51z"/>
			<path class="st8" d="M31.91,153.34c-0.02,0-0.03,0-0.05,0l-15.65-1.5c-0.28-0.03-0.48-0.27-0.45-0.55
				c0.03-0.28,0.28-0.48,0.55-0.45l15.65,1.5c0.28,0.03,0.48,0.27,0.45,0.55C32.37,153.14,32.15,153.34,31.91,153.34z"/>
		</g>
	</g>
</g>
</svg>
