<?xml version="1.0" encoding="utf-8"?>
<!-- Generator: Adobe Illustrator 25.2.1, SVG Export Plug-In . SVG Version: 6.00 Build 0)  -->
<svg version="1.1" xmlns="http://www.w3.org/2000/svg" xmlns:xlink="http://www.w3.org/1999/xlink" x="0px" y="0px"
	 viewBox="0 0 230.77 161.53" style="enable-background:new 0 0 230.77 161.53;" xml:space="preserve">
<style type="text/css">
	.st0{fill:url(#SVGID_1_);}
	.st1{fill:url(#SVGID_2_);}
	.st2{fill:url(#SVGID_3_);stroke:#BD9874;stroke-miterlimit:10;}
	.st3{fill:#E1BD7F;}
	.st4{fill:#A7855D;}
	.st5{fill:#221F1F;}
	.st6{fill:url(#SVGID_4_);}
	.st7{fill:#756042;}
	.st8{fill:url(#SVGID_5_);}
</style>
<g id="Layer_1">
</g>
<g id="Layer_2">
	<g>
		<g>
			<linearGradient id="SVGID_1_" gradientUnits="userSpaceOnUse" x1="125.7417" y1="-13.2404" x2="72.3445" y2="154.0186">
				<stop  offset="0" style="stop-color:#9F844E"/>
				<stop  offset="1" style="stop-color:#9F7F53"/>
			</linearGradient>
			<polygon class="st0" points="160.47,158.98 29.68,145.29 29.68,6.65 160.47,8.79 			"/>
			<linearGradient id="SVGID_2_" gradientUnits="userSpaceOnUse" x1="156.7536" y1="15.2304" x2="202.5126" y2="133.1723">
				<stop  offset="0" style="stop-color:#C8A466"/>
				<stop  offset="1" style="stop-color:#CAA460"/>
			</linearGradient>
			<polygon class="st1" points="160.47,158.98 202.53,126.47 204.8,4.9 160.47,8.79 			"/>
			<linearGradient id="SVGID_3_" gradientUnits="userSpaceOnUse" x1="115.1411" y1="-6.3377" x2="121.2872" y2="29.1424">
				<stop  offset="5.785390e-03" style="stop-color:#E3B664"/>
				<stop  offset="1" style="stop-color:#D5B685"/>
			</linearGradient>
			<polygon class="st2" points="29.68,6.65 160.47,8.79 204.8,4.9 102.32,2.74 			"/>
			<polygon class="st3" points="181.03,121.09 181.03,143.09 186.93,138.53 186.93,116.88 			"/>
			<g>
				<polygon class="st4" points="70.07,142.62 36.61,139.52 36.61,109.6 70.07,111.92 				"/>
				<path class="st5" d="M70.53,143.12l-34.38-3.18v-30.83l34.38,2.39V143.12z M37.06,139.11l32.56,3.02v-29.78l-32.56-2.26V139.11z
					"/>
			</g>
			<g>
				<path class="st5" d="M65.55,117.73c-0.02,0-0.03,0-0.05,0l-24.88-2.59c-0.25-0.03-0.43-0.25-0.41-0.5
					c0.03-0.25,0.25-0.43,0.5-0.41l24.88,2.59c0.25,0.03,0.43,0.25,0.41,0.5C65.98,117.56,65.78,117.73,65.55,117.73z"/>
				<path class="st5" d="M65.31,122.89c-0.02,0-0.03,0-0.05,0l-24.67-2.52c-0.25-0.03-0.43-0.25-0.41-0.5
					c0.03-0.25,0.25-0.43,0.5-0.41l24.67,2.52c0.25,0.03,0.43,0.25,0.41,0.5C65.74,122.72,65.54,122.89,65.31,122.89z"/>
				<path class="st5" d="M60.91,127.55c-0.02,0-0.03,0-0.05,0l-20.31-2.03c-0.25-0.02-0.43-0.25-0.41-0.5
					c0.02-0.25,0.25-0.43,0.5-0.41l20.31,2.03c0.25,0.02,0.43,0.25,0.41,0.5C61.34,127.38,61.14,127.55,60.91,127.55z"/>
				<path class="st5" d="M60.7,132.56c-0.02,0-0.03,0-0.05,0l-20.13-1.97c-0.25-0.02-0.43-0.25-0.41-0.5
					c0.02-0.25,0.25-0.43,0.5-0.41l20.13,1.97c0.25,0.02,0.43,0.25,0.41,0.5C61.13,132.38,60.93,132.56,60.7,132.56z"/>
				<path class="st5" d="M54.7,136.93c-0.02,0-0.03,0-0.04,0l-14.16-1.36c-0.25-0.02-0.43-0.25-0.41-0.5
					c0.02-0.25,0.25-0.44,0.5-0.41l14.16,1.36c0.25,0.02,0.43,0.25,0.41,0.5C55.13,136.75,54.94,136.93,54.7,136.93z"/>
			</g>
			
				<linearGradient id="SVGID_4_" gradientUnits="userSpaceOnUse" x1="-219.8757" y1="44.3948" x2="152.1943" y2="44.3948" gradientTransform="matrix(0.427 3.375658e-03 3.375658e-03 0.6308 94.8555 1.0362)">
				<stop  offset="0" style="stop-color:#C8A466"/>
				<stop  offset="1" style="stop-color:#CAA460"/>
			</linearGradient>
			<polygon class="st6" points="159.88,9.3 29.68,6.65 1.21,46.45 135.83,51.24 			"/>
		</g>
		<polygon class="st7" points="76.89,49.15 95.08,49.52 95.08,56.31 76.89,56.31 		"/>
		
			<linearGradient id="SVGID_5_" gradientUnits="userSpaceOnUse" x1="153.6368" y1="37.6846" x2="305.5759" y2="37.6846" gradientTransform="matrix(0.427 5.408510e-03 5.432819e-03 0.7542 94.8423 0.2886)">
			<stop  offset="0" style="stop-color:#9F844E"/>
			<stop  offset="1" style="stop-color:#9F7F53"/>
		</linearGradient>
		<polygon class="st8" points="204.64,4.8 160.51,9.31 175.17,55.02 225.58,35.57 		"/>
	</g>
</g>
</svg>
