<?xml version="1.0" encoding="utf-8"?>
<!-- Generator: Adobe Illustrator 25.2.1, SVG Export Plug-In . SVG Version: 6.00 Build 0)  -->
<svg version="1.1" id="Layer_1" xmlns="http://www.w3.org/2000/svg" xmlns:xlink="http://www.w3.org/1999/xlink" x="0px" y="0px"
	 viewBox="0 0 218.44 175" style="enable-background:new 0 0 218.44 175;" xml:space="preserve">
<style type="text/css">
	.st0{fill:#C8E6EB;}
	.st1{fill:#C37329;}
	.st2{fill:#D67D28;}
	.st3{fill:#E79731;}
	.st4{fill:#FBAD57;}
	.st5{fill:#EF5453;}
</style>
<g>
	<ellipse class="st0" cx="109.22" cy="157.8" rx="91.38" ry="8.46"/>
	<g>
		<polygon class="st1" points="81.67,29.9 184.37,38.05 184.37,157.8 81.67,149.65 		"/>
		<polygon class="st2" points="81.67,29.9 184.37,38.05 203.79,16.88 101.09,8.73 		"/>
		<polygon class="st2" points="81.67,29.9 27.5,38.05 27.5,157.8 81.67,149.65 		"/>
		<polygon class="st3" points="81.67,29.9 27.5,38.05 5.63,23.39 59.8,15.24 		"/>
		<polygon class="st3" points="130.2,165.95 27.5,157.8 27.5,38.05 130.2,46.2 		"/>
		<polygon class="st4" points="105.94,67.42 3.24,59.27 27.5,38.05 130.2,46.2 		"/>
		<polygon class="st2" points="130.2,165.95 184.37,157.8 184.37,38.05 130.2,46.2 		"/>
		<polygon class="st3" points="161.04,52.74 215.2,44.59 184.37,38.05 130.2,46.2 		"/>
	</g>
</g>
<polygon class="st5" points="69.75,120.79 50.35,120.79 50.63,63.03 69.75,64.57 "/>
</svg>
