<?xml version="1.0" encoding="utf-8"?>
<!-- Generator: Adobe Illustrator 25.2.1, SVG Export Plug-In . SVG Version: 6.00 Build 0)  -->
<svg version="1.1" id="Layer_1" xmlns="http://www.w3.org/2000/svg" xmlns:xlink="http://www.w3.org/1999/xlink" x="0px" y="0px"
	 viewBox="0 0 218.44 175" style="enable-background:new 0 0 218.44 175;" xml:space="preserve">
<style type="text/css">
	.st0{fill:#C8E6EB;}
	.st1{fill:#C37329;}
	.st2{fill:#D67D28;}
	.st3{fill:#E79731;}
	.st4{opacity:0.15;fill:#010101;}
	.st5{fill:#FBAD57;}
	.st6{fill:#F05253;}
</style>
<g>
	<ellipse class="st0" cx="107.13" cy="152.57" rx="97.83" ry="9.06"/>
	<g>
		<polygon class="st1" points="73.89,27.4 187.87,34.35 187.87,151.79 73.89,144.84 		"/>
		<polygon class="st2" points="73.89,27.4 27.7,34.35 27.7,151.79 73.89,144.84 		"/>
		<polygon class="st3" points="141.69,158.74 27.7,151.79 27.7,34.35 141.69,41.3 		"/>
		<polygon class="st2" points="141.69,158.74 187.87,151.79 187.87,34.35 141.69,41.3 		"/>
		<polygon class="st4" points="141.69,41.3 27.7,34.35 27.7,51.67 141.69,58.62 187.87,51.67 187.87,34.35 		"/>
		<g>
			<polygon class="st2" points="72.39,13.37 23.34,20.75 23.34,46.53 72.39,39.15 			"/>
			<g>
				<polygon class="st1" points="72.39,13.37 190.68,20.75 190.68,46.53 72.39,39.15 				"/>
				<polygon class="st3" points="141.62,53.91 23.34,46.53 23.34,20.75 141.62,28.13 				"/>
				<polygon class="st2" points="141.62,53.91 190.68,46.53 190.68,20.75 141.62,28.13 				"/>
				<polygon class="st5" points="23.34,20.75 72.39,13.37 190.68,20.75 141.62,28.13 				"/>
			</g>
		</g>
	</g>
</g>
<polygon class="st6" points="84.69,92 65.3,92 65.3,23.4 84.69,24.54 "/>
<polygon class="st6" points="96.43,14.85 110.98,15.78 84.61,24.48 65.3,23.4 "/>
</svg>
