<?xml version="1.0" encoding="utf-8"?>
<!-- Generator: Adobe Illustrator 25.2.1, SVG Export Plug-In . SVG Version: 6.00 Build 0)  -->
<svg version="1.1" id="Layer_1" xmlns="http://www.w3.org/2000/svg" xmlns:xlink="http://www.w3.org/1999/xlink" x="0px" y="0px"
	 viewBox="0 0 218.44 175" style="enable-background:new 0 0 218.44 175;" xml:space="preserve">
<style type="text/css">
	.st0{fill:#263238;stroke:#263238;stroke-linecap:round;stroke-linejoin:round;stroke-miterlimit:10;}
	.st1{fill:#FFFFFF;stroke:#263238;stroke-linecap:round;stroke-linejoin:round;stroke-miterlimit:10;}
	.st2{fill:#7A7777;}
	.st3{fill:#263238;stroke:#FFFFFF;stroke-width:0.6917;stroke-linejoin:round;stroke-miterlimit:10;}
	.st4{fill:#7A7777;stroke:#263238;stroke-linecap:round;stroke-linejoin:round;stroke-miterlimit:10;}
	.st5{fill:#555251;stroke:#263238;stroke-linecap:round;stroke-linejoin:round;stroke-miterlimit:10;}
	.st6{fill:#9BD2A5;stroke:#263238;stroke-miterlimit:10;}
	.st7{fill:none;stroke:#263238;stroke-miterlimit:10;}
	.st8{fill:#D3EBDB;stroke:#263238;stroke-miterlimit:10;}
	.st9{fill:#D7D7D7;}
	.st10{fill:#74C69C;stroke:#263238;stroke-miterlimit:10;}
	.st11{fill:#010101;stroke:#263238;stroke-width:0.25;stroke-miterlimit:10;}
	.st12{fill:none;stroke:#263238;stroke-width:0.75;stroke-miterlimit:10;}
	.st13{fill:#74C69C;stroke:#263238;stroke-width:0.25;stroke-miterlimit:10;}
</style>
<g>
	<path class="st0" d="M198.4,145.95H20.76V22.76c0-7.03,5.7-12.74,12.74-12.74h152.17c7.03,0,12.74,5.7,12.74,12.74V145.95z"/>
	<rect x="48.95" y="139.4" class="st0" width="122.09" height="7.09"/>
	<rect x="48.95" y="142.82" class="st1" width="122.09" height="3.68"/>
	<path class="st0" d="M6.39,150.7c0,0,2.01,2.89,8.02,5.25h191.15c0,0,4.46-1.31,6.46-4.99L6.39,150.7z"/>
	<path class="st1" d="M210.11,151.04H8.33c-1.29,0-2.34-1.24-2.34-2.76v0c0-1.52,1.05-2.76,2.34-2.76h201.79
		c1.29,0,2.34,1.24,2.34,2.76l0,0C212.46,149.81,211.41,151.04,210.11,151.04z"/>
	<path class="st2" d="M111.1,14.14c0-1.02-0.7-1.84-1.56-1.84c-0.86,0-1.56,0.82-1.56,1.84s0.7,1.84,1.56,1.84
		C110.4,15.98,111.1,15.15,111.1,14.14z"/>
	<path class="st3" d="M22.43,48.28L22.43,48.28c-0.25,0-0.45-0.24-0.45-0.53V32.52c0-0.29,0.2-0.53,0.45-0.53l0,0
		c0.25,0,0.45,0.24,0.45,0.53v15.23C22.88,48.04,22.68,48.28,22.43,48.28z"/>
	<g>
		<g>
			<rect id="XMLID_2_" x="27.97" y="20.65" class="st1" width="163.23" height="108.73"/>
		</g>
		<g>
			<g>
				<rect id="XMLID_5_" x="27.97" y="20.65" class="st4" width="163.23" height="8.23"/>
			</g>
		</g>
		<g>
			<rect id="XMLID_4_" x="185.94" y="28.58" class="st4" width="5.25" height="100.8"/>
		</g>
		<g>
			<rect x="185.94" y="45.94" class="st5" width="5.25" height="29.97"/>
		</g>
		<g>
			<g>
				<rect id="XMLID_1_" x="27.97" y="28.58" class="st6" width="163.23" height="9.08"/>
			</g>
			<line class="st7" x1="47.25" y1="37.86" x2="47.25" y2="28.63"/>
			<line class="st7" x1="67.98" y1="37.86" x2="67.98" y2="28.63"/>
			<line class="st7" x1="88.71" y1="37.86" x2="88.71" y2="28.63"/>
			<line class="st7" x1="109.44" y1="37.86" x2="109.44" y2="28.63"/>
			<line class="st7" x1="130.17" y1="37.86" x2="130.17" y2="28.63"/>
			<line class="st7" x1="150.9" y1="37.86" x2="150.9" y2="28.63"/>
			<line class="st7" x1="171.64" y1="37.86" x2="171.64" y2="28.63"/>
		</g>
		<rect x="40.16" y="22.32" class="st1" width="59.43" height="3.8"/>
		<path class="st1" d="M176.87,24.22c0,0.86-0.59,1.55-1.32,1.55c-0.73,0-1.32-0.7-1.32-1.55c0-0.86,0.59-1.55,1.32-1.55
			C176.28,22.66,176.87,23.36,176.87,24.22z"/>
		<path class="st1" d="M182.43,24.22c0,0.86-0.59,1.55-1.32,1.55c-0.73,0-1.32-0.7-1.32-1.55c0-0.86,0.59-1.55,1.32-1.55
			C181.84,22.66,182.43,23.36,182.43,24.22z"/>
		<path class="st1" d="M187.99,24.22c0,0.86-0.59,1.55-1.32,1.55s-1.32-0.7-1.32-1.55c0-0.86,0.59-1.55,1.32-1.55
			S187.99,23.36,187.99,24.22z"/>
	</g>
</g>
<rect x="38.07" y="71.25" class="st8" width="10.59" height="12.48"/>
<rect x="38.07" y="88.79" class="st8" width="10.59" height="12.48"/>
<rect x="38.07" y="105.68" class="st8" width="10.59" height="12.48"/>
<rect x="58.49" y="72.31" class="st9" width="63.1" height="10.36"/>
<rect x="124.15" y="72.31" class="st9" width="55.64" height="10.36"/>
<rect x="58.49" y="90.48" class="st9" width="23.2" height="10.36"/>
<rect x="85.25" y="90.48" class="st9" width="94.55" height="10.36"/>
<rect x="58.49" y="106.74" class="st9" width="33.18" height="10.36"/>
<rect x="94.51" y="106.74" class="st9" width="85.28" height="10.36"/>
<ellipse class="st10" cx="161.35" cy="102.79" rx="13.04" ry="15.38"/>
<g>
	<polygon class="st0" points="157.18,100.77 156.13,101.8 159.74,107.59 160.79,106.56 	"/>
	<polygon class="st0" points="167.58,99.23 166.71,97.98 158.95,106.35 159.82,107.59 	"/>
</g>
<g>
	<g>
		<path class="st11" d="M37.3,43.77c0.03,0.31,0.27,0.53,0.53,0.49l0.34-0.05l2.07-0.31c0,0,1.65,5.67,1.71,5.89l2.15,7.53
			l1.76-0.51v2.2l12.54-1.64c0.26-0.03,0.45-0.31,0.42-0.62c-0.03-0.31-0.26-0.53-0.53-0.5l-11.48,1.5v-1.22l11.54-3.32l-0.91-9.88
			l-15.16,3.26l-1.45-3.91l-3.12,0.46C37.45,43.19,37.26,43.47,37.3,43.77z"/>
		
			<ellipse transform="matrix(0.1106 -0.9939 0.9939 0.1106 -7.9739 109.761)" class="st12" cx="57.34" cy="59.34" rx="1.3" ry="0.75"/>
		
			<ellipse transform="matrix(0.1106 -0.9939 0.9939 0.1106 -17.9757 101.1656)" class="st12" cx="47.53" cy="60.63" rx="1.3" ry="0.75"/>
	</g>
	<g>
		<g>
			<line class="st13" x1="39.84" y1="50.15" x2="37.37" y2="50.42"/>
			<path class="st13" d="M37.37,50.85c0.01,0,0.02,0,0.03,0l2.48-0.27c0.2-0.02,0.35-0.24,0.34-0.48c-0.02-0.24-0.2-0.42-0.4-0.4
				l-2.48,0.27c-0.2,0.02-0.35,0.23-0.34,0.48C37.01,50.68,37.18,50.85,37.37,50.85z"/>
		</g>
		<g>
			<line class="st13" x1="37.91" y1="47.86" x2="36.08" y2="48.13"/>
			<path class="st13" d="M36.08,48.57c0.01,0,0.02,0,0.03,0l1.83-0.27c0.15-0.02,0.26-0.23,0.25-0.48c-0.01-0.24-0.15-0.42-0.3-0.4
				l-1.83,0.27c-0.15,0.02-0.26,0.23-0.25,0.48C35.82,48.4,35.94,48.57,36.08,48.57z"/>
		</g>
		<g>
			<line class="st13" x1="39" y1="52.26" x2="34.07" y2="52.88"/>
			<path class="st13" d="M34.07,53.31c0.01,0,0.02,0,0.03,0l4.92-0.62c0.18-0.02,0.31-0.24,0.29-0.48c-0.02-0.24-0.17-0.42-0.35-0.4
				l-4.92,0.62c-0.18,0.02-0.31,0.24-0.29,0.48C33.77,53.14,33.91,53.31,34.07,53.31z"/>
		</g>
		<g>
			<line class="st13" x1="41.07" y1="54.68" x2="37.9" y2="55.02"/>
			<path class="st13" d="M37.9,55.46c0.01,0,0.02,0,0.03,0l3.17-0.34c0.2-0.02,0.35-0.23,0.34-0.48c-0.02-0.24-0.2-0.42-0.4-0.4
				l-3.17,0.34c-0.2,0.02-0.35,0.23-0.34,0.48C37.54,55.29,37.71,55.46,37.9,55.46z"/>
		</g>
	</g>
</g>
<rect x="77.35" y="44.66" class="st13" width="95.19" height="7.38"/>
<rect x="77.35" y="55.64" class="st13" width="75.64" height="7.38"/>
<polygon class="st13" points="57.36,52.37 44.61,55.8 42.56,47.72 56.53,44.62 "/>
<line class="st7" x1="0" y1="155.95" x2="218.44" y2="155.95"/>
</svg>
