<?xml version="1.0" encoding="utf-8"?>
<!-- Generator: Adobe Illustrator 25.2.1, SVG Export Plug-In . SVG Version: 6.00 Build 0)  -->
<svg version="1.1" id="Layer_1" xmlns="http://www.w3.org/2000/svg" xmlns:xlink="http://www.w3.org/1999/xlink" x="0px" y="0px"
	 viewBox="0 0 218.44 175" style="enable-background:new 0 0 218.44 175;" xml:space="preserve">
<style type="text/css">
	.st0{fill:#263238;stroke:#263238;stroke-linecap:round;stroke-linejoin:round;stroke-miterlimit:10;}
	.st1{fill:#FFFFFF;stroke:#263238;stroke-linecap:round;stroke-linejoin:round;stroke-miterlimit:10;}
	.st2{fill:#7A7777;}
	.st3{fill:#263238;stroke:#FFFFFF;stroke-width:0.6917;stroke-linejoin:round;stroke-miterlimit:10;}
	.st4{fill:#7A7777;stroke:#263238;stroke-linecap:round;stroke-linejoin:round;stroke-miterlimit:10;}
	.st5{fill:#555251;stroke:#263238;stroke-linecap:round;stroke-linejoin:round;stroke-miterlimit:10;}
	.st6{fill:#9356A3;stroke:#263238;stroke-miterlimit:10;}
	.st7{fill:none;stroke:#263238;stroke-miterlimit:10;}
	.st8{fill:#A5A4A4;}
	.st9{clip-path:url(#SVGID_2_);fill-rule:evenodd;clip-rule:evenodd;fill:#9356A3;stroke:#263238;stroke-miterlimit:10;}
</style>
<g>
	<path class="st0" d="M198.4,145.95H20.76V22.76c0-7.03,5.7-12.74,12.74-12.74h152.17c7.03,0,12.74,5.7,12.74,12.74V145.95z"/>
	<rect x="48.95" y="139.4" class="st0" width="122.09" height="7.09"/>
	<rect x="48.95" y="142.82" class="st1" width="122.09" height="3.68"/>
	<path class="st0" d="M6.39,150.7c0,0,2.01,2.89,8.02,5.25h191.15c0,0,4.46-1.31,6.46-4.99L6.39,150.7z"/>
	<path class="st1" d="M210.11,151.04H8.33c-1.29,0-2.34-1.24-2.34-2.76v0c0-1.52,1.05-2.76,2.34-2.76h201.79
		c1.29,0,2.34,1.24,2.34,2.76l0,0C212.46,149.81,211.41,151.04,210.11,151.04z"/>
	<path class="st2" d="M111.1,14.14c0-1.02-0.7-1.84-1.56-1.84c-0.86,0-1.56,0.82-1.56,1.84s0.7,1.84,1.56,1.84
		C110.4,15.98,111.1,15.15,111.1,14.14z"/>
	<path class="st3" d="M22.43,48.28L22.43,48.28c-0.25,0-0.45-0.24-0.45-0.53V32.52c0-0.29,0.2-0.53,0.45-0.53l0,0
		c0.25,0,0.45,0.24,0.45,0.53v15.23C22.88,48.04,22.68,48.28,22.43,48.28z"/>
	<g>
		<g>
			<rect id="XMLID_2_" x="27.97" y="20.65" class="st1" width="163.23" height="108.73"/>
		</g>
		<g>
			<g>
				<rect id="XMLID_5_" x="27.97" y="20.65" class="st4" width="163.23" height="8.23"/>
			</g>
		</g>
		<g>
			<rect id="XMLID_4_" x="185.94" y="28.58" class="st4" width="5.25" height="100.8"/>
		</g>
		<g>
			<rect x="185.94" y="45.94" class="st5" width="5.25" height="29.97"/>
		</g>
		<g>
			<g>
				<rect id="XMLID_1_" x="27.97" y="28.58" class="st6" width="163.23" height="9.08"/>
			</g>
			<line class="st7" x1="47.25" y1="37.86" x2="47.25" y2="28.63"/>
			<line class="st7" x1="67.98" y1="37.86" x2="67.98" y2="28.63"/>
			<line class="st7" x1="88.71" y1="37.86" x2="88.71" y2="28.63"/>
			<line class="st7" x1="109.44" y1="37.86" x2="109.44" y2="28.63"/>
			<line class="st7" x1="130.17" y1="37.86" x2="130.17" y2="28.63"/>
			<line class="st7" x1="150.9" y1="37.86" x2="150.9" y2="28.63"/>
			<line class="st7" x1="171.64" y1="37.86" x2="171.64" y2="28.63"/>
		</g>
		<rect x="40.16" y="22.32" class="st1" width="59.43" height="3.8"/>
		<path class="st1" d="M176.87,24.22c0,0.86-0.59,1.55-1.32,1.55c-0.73,0-1.32-0.7-1.32-1.55c0-0.86,0.59-1.55,1.32-1.55
			C176.28,22.66,176.87,23.36,176.87,24.22z"/>
		<path class="st1" d="M182.43,24.22c0,0.86-0.59,1.55-1.32,1.55c-0.73,0-1.32-0.7-1.32-1.55c0-0.86,0.59-1.55,1.32-1.55
			C181.84,22.66,182.43,23.36,182.43,24.22z"/>
		<path class="st1" d="M187.99,24.22c0,0.86-0.59,1.55-1.32,1.55s-1.32-0.7-1.32-1.55c0-0.86,0.59-1.55,1.32-1.55
			S187.99,23.36,187.99,24.22z"/>
	</g>
</g>
<rect x="58.49" y="73.06" class="st8" width="109.79" height="10.36"/>
<rect x="58.49" y="90.48" class="st8" width="94.5" height="10.36"/>
<rect x="58.49" y="107.32" class="st8" width="121.31" height="10.36"/>
<rect x="77.35" y="44.66" class="st6" width="95.19" height="7.38"/>
<rect x="77.35" y="55.64" class="st6" width="75.64" height="7.38"/>
<line class="st7" x1="0" y1="155.95" x2="218.44" y2="155.95"/>
<circle class="st6" cx="43.97" cy="112.73" r="6.87"/>
<circle class="st6" cx="43.97" cy="95.66" r="6.87"/>
<circle class="st6" cx="43.97" cy="77.99" r="6.87"/>
<g>
	<g>
		<defs>
			<path id="SVGID_1_" d="M58.38,53.4c0,6.15-4.98,11.13-11.13,11.13c-6.15,0-11.13-4.98-11.13-11.13c0-6.15,4.98-11.13,11.13-11.13
				C53.39,42.27,58.38,47.25,58.38,53.4z"/>
		</defs>
		<use xlink:href="#SVGID_1_"  style="overflow:visible;opacity:0.3;fill:#9356A3;"/>
		<clipPath id="SVGID_2_">
			<use xlink:href="#SVGID_1_"  style="overflow:visible;opacity:0.3;"/>
		</clipPath>
		<path class="st9" d="M59.69,64.73c-0.16-0.41-0.38-0.79-0.64-1.13c-0.43-0.55-0.99-0.93-1.61-1.22c-0.18-0.09-0.36-0.19-0.55-0.23
			c-0.62-0.14-1.23-0.31-1.84-0.49c-0.22,0.01-0.4-0.06-0.57-0.2c-0.45-0.18-0.93-0.32-1.35-0.57c-0.15-0.02-0.29-0.06-0.39-0.18
			c-0.08-0.02-0.14-0.07-0.22-0.09c-0.22-0.05-0.4-0.17-0.54-0.34c-0.08-0.06-0.17-0.1-0.25-0.17c-0.1-0.05-0.16-0.12-0.19-0.25
			c-0.04-0.16-0.08-0.32-0.13-0.48c-0.06-0.16-0.06-0.33-0.09-0.49c-0.02-0.09-0.04-0.17-0.14-0.2c-0.1-0.05-0.19,0-0.28,0.02
			c-0.19,0.04-0.29-0.02-0.32-0.22c-0.02-0.14-0.06-0.29-0.07-0.43c-0.02-0.32-0.06-0.65,0.24-0.88c0.36-0.72,0.62-1.47,0.83-2.24
			c0.05-0.17,0.13-0.32,0.36-0.33c0.14,0,0.25-0.1,0.29-0.25c0.14-0.45,0.27-0.91,0.47-1.33c0.06-0.31,0.22-0.6,0.23-0.92
			c0-0.06,0.01-0.13,0.01-0.19c-0.01-0.03-0.02-0.05-0.04-0.07c-0.01-0.01-0.02-0.02-0.04-0.03c0.01-0.14,0.02-0.28,0.01-0.41
			c-0.01-0.19-0.1-0.35-0.29-0.4c-0.17-0.05-0.21-0.14-0.2-0.3c0.04-0.61,0.07-1.22,0.11-1.82c0.01-0.02,0.01-0.04-0.01-0.06
			c0.01-0.01,0.01-0.02,0-0.04c-0.02-0.18-0.03-0.37-0.05-0.55c-0.05-0.44-0.1-0.88-0.33-1.27c-0.44-0.75-1.06-1.33-1.84-1.72
			c-0.66-0.33-1.37-0.5-2.09-0.65c-1.49-0.3-2.82,0.03-3.98,1.02c0,0.01,0.01,0.02,0.01,0.03l0,0l0,0c-0.13,0.08-0.23,0.2-0.31,0.33
			c-0.14,0.26-0.34,0.47-0.55,0.67c-0.39,0.36-0.6,0.78-0.54,1.32c-0.01,0.01-0.03,0.01-0.04,0.02c-0.02,0.02-0.04,0.04-0.05,0.07
			c-0.09,0.43,0.02,0.86,0.02,1.3c0.11,0.37,0.11,0.74,0.14,1.12c0.02,0.21-0.04,0.35-0.24,0.42c-0.25,0.09-0.35,0.29-0.39,0.54
			c-0.04,0.25-0.04,0.51,0.03,0.76c0.1,0.36,0.2,0.71,0.32,1.06c0.18,0.3,0.29,0.63,0.36,0.96c0.04,0.22,0.14,0.35,0.33,0.42
			c0.16,0.06,0.25,0.17,0.28,0.33c0.06,0.26,0.15,0.51,0.23,0.76c0.09,0.21,0.24,0.39,0.25,0.63c0,0.02,0.01,0.05,0.02,0.07
			c0.44,0.7,0.68,1.44,0.39,2.26c-0.15,0.16-0.3-0.01-0.45-0.01c-0.15,0-0.27-0.02-0.31,0.17c-0.11,0.36-0.17,0.73-0.29,1.09
			c-0.06,0.2-0.16,0.34-0.35,0.43c-0.41,0.21-0.82,0.39-1.26,0.52c-0.29,0.21-0.65,0.27-0.97,0.39c-0.64,0.24-1.31,0.37-1.96,0.55
			c-0.8,0.21-1.58,0.48-2.26,1c-0.34,0.42-0.79,0.76-0.96,1.31c0,0.23,0.01,0.47,0,0.7c-0.01,0.18,0.04,0.22,0.22,0.22
			c7.93-0.01,15.86,0,23.79,0C59.77,64.96,59.74,64.85,59.69,64.73z"/>
		<use xlink:href="#SVGID_1_"  style="overflow:visible;opacity:0.3;fill:none;stroke:#263238;stroke-miterlimit:10;"/>
	</g>
</g>
</svg>
