<?xml version="1.0" encoding="utf-8"?>
<!-- Generator: Adobe Illustrator 25.2.1, SVG Export Plug-In . SVG Version: 6.00 Build 0)  -->
<svg version="1.1" id="Layer_1" xmlns="http://www.w3.org/2000/svg" xmlns:xlink="http://www.w3.org/1999/xlink" x="0px" y="0px"
	 viewBox="0 0 218.44 175" style="enable-background:new 0 0 218.44 175;" xml:space="preserve">
<style type="text/css">
	.st0{fill:#ECF1F1;stroke:#083440;stroke-width:2;stroke-miterlimit:10;}
	.st1{fill:#083440;}
	.st2{fill:#8DB975;stroke:#134F52;stroke-width:1.5;stroke-miterlimit:10;}
	.st3{fill:#CEDADE;}
	.st4{fill:#8DB975;stroke:#083440;stroke-miterlimit:10;}
	.st5{fill:#CEDADE;stroke:#083440;stroke-miterlimit:10;}
	.st6{fill:#11535A;}
	.st7{fill:#FFFFFF;stroke:#0B4245;stroke-width:2;stroke-miterlimit:10;}
	.st8{fill:#FFFFFF;stroke:#010101;stroke-width:2;stroke-miterlimit:10;}
	.st9{fill:#8DB975;}
	.st10{fill:#8DB975;stroke:#083440;stroke-width:1.5;stroke-miterlimit:10;}
	.st11{fill:#FFFFFF;stroke:#083440;stroke-width:2;stroke-miterlimit:10;}
	.st12{fill:#092F33;}
</style>
<g>
	<g>
		<path class="st0" d="M34.21,20.92c-6.61,0-11.97,5.57-11.97,12.45l0,0c0,6.88,5.36,12.45,11.97,12.45h151.75
			c1.67,0,3.03-1.35,3.05-3.02c0.13-8.58,0.74-15.61,0.18-19.26c-0.23-1.5-1.51-2.62-3.03-2.62H34.21z"/>
		<g>
			<path class="st1" d="M190.04,151.88h-5.88v-2.3h5.88c0.49,0,0.98-0.08,1.45-0.22l0.7,2.19
				C191.49,151.76,190.77,151.88,190.04,151.88z M176.47,151.88h-7.68v-2.3h7.68V151.88z M161.11,151.88h-7.68v-2.3h7.68V151.88z
				 M145.75,151.88h-7.68v-2.3h7.68V151.88z M130.4,151.88h-7.68v-2.3h7.68V151.88z M115.05,151.88h-7.67v-2.3h7.67V151.88z
				 M99.69,151.88h-7.68v-2.3h7.68V151.88z M84.34,151.88h-7.68v-2.3h7.68V151.88z M68.99,151.88h-7.68v-2.3h7.68V151.88z
				 M53.64,151.88h-7.68v-2.3h7.68V151.88z M38.28,151.88H30.6v-2.3h7.68V151.88z M197.12,144.63h-2.3v-7.66h2.3V144.63z"/>
			<rect x="194.83" y="125.87" class="st1" width="2.3" height="3.83"/>
		</g>
		<g>
			<rect x="194.83" y="76.54" class="st1" width="2.3" height="3.83"/>
			<rect x="194.83" y="62.95" class="st1" width="2.3" height="6.79"/>
			<polygon class="st1" points="197.12,56.16 194.83,56.16 194.83,53.48 192.15,53.48 192.15,51.18 197.12,51.18 			"/>
			<path class="st1" d="M184.75,53.48h-7.39v-2.3h7.39V53.48z M169.97,53.48h-7.39v-2.3h7.39V53.48z M155.19,53.48h-7.39v-2.3h7.39
				V53.48z M140.4,53.48h-7.39v-2.3h7.39V53.48z M125.62,53.48h-7.39v-2.3h7.39V53.48z M110.83,53.48h-7.39v-2.3h7.39V53.48z
				 M96.05,53.48h-7.39v-2.3h7.39V53.48z M81.27,53.48h-7.39v-2.3h7.39V53.48z M66.48,53.48h-7.39v-2.3h7.39V53.48z M51.7,53.48
				h-7.39v-2.3h7.39V53.48z M36.91,53.48h-7.39v-2.3h7.39V53.48z"/>
		</g>
	</g>
	<g>
		<path class="st2" d="M182.2,51.18H44.01c-0.26,0-0.46-0.21-0.46-0.46V10.11c0-0.26,0.21-0.46,0.46-0.46H182.2
			c0.26,0,0.46,0.21,0.46,0.46v40.61C182.67,50.97,182.46,51.18,182.2,51.18z"/>
		<rect x="43.55" y="14.24" class="st2" width="135.46" height="31.96"/>
	</g>
	<g>
		<path class="st2" d="M170.87,49.83H32.68c-0.26,0-0.46-0.21-0.46-0.46V23.76c0-0.26,0.21-0.46,0.46-0.46h138.19
			c0.26,0,0.46,0.21,0.46,0.46v25.61C171.34,49.62,171.13,49.83,170.87,49.83z"/>
		<rect x="32.22" y="27.89" class="st2" width="135.46" height="17.92"/>
	</g>
	<path class="st3" d="M101.37,44.94c0.73,0.33,1.41,0.57,2.02,0.72c0.61,0.15,1.14,0.23,1.58,0.23c0.39,0,0.72-0.1,1-0.29
		c0.28-0.19,0.42-0.45,0.42-0.79c0-0.08-0.01-0.17-0.03-0.25c-0.02-0.09-0.05-0.17-0.08-0.24c-0.04-0.08-0.1-0.17-0.18-0.29
		c-0.08-0.12-0.15-0.2-0.21-0.26c-0.06-0.06-0.3-0.29-0.72-0.7c-1.2-1.16-2-1.98-2.39-2.46c-0.31-0.37-0.55-0.79-0.71-1.25
		c-0.17-0.46-0.25-0.91-0.25-1.35c0-0.34,0.05-0.68,0.15-1.02c0.1-0.33,0.25-0.65,0.44-0.95c0.19-0.3,0.43-0.57,0.7-0.81
		c0.27-0.24,0.57-0.44,0.9-0.59c0.33-0.15,0.81-0.31,1.46-0.48c0.01-0.24,0.02-0.38,0.02-0.43L105.47,33v-1.28
		c0.82,0.02,1.5,0.02,2.03,0.02c0.6,0,1.27-0.01,2.02-0.02c-0.04,0.83-0.06,1.32-0.06,1.46v0.97c0.74,0.11,1.47,0.26,2.19,0.46
		c0.05,1.21,0.12,2.47,0.21,3.77c-0.61-0.28-1.17-0.48-1.68-0.6c-0.51-0.12-0.94-0.18-1.28-0.18c-0.38,0-0.7,0.09-0.95,0.26
		c-0.25,0.18-0.38,0.4-0.38,0.68c0,0.24,0.07,0.46,0.22,0.67c0.15,0.21,0.35,0.44,0.62,0.7c0.97,0.91,1.69,1.64,2.15,2.19
		c0.46,0.55,0.78,1.07,0.97,1.56c0.19,0.49,0.28,0.98,0.28,1.46c0,0.4-0.05,0.77-0.15,1.12c-0.1,0.35-0.25,0.67-0.44,0.96
		c-0.19,0.29-0.42,0.55-0.67,0.79c-0.25,0.23-0.52,0.43-0.79,0.6c-0.27,0.17-0.67,0.36-1.19,0.57l-0.02,1.43
		c0,0.47,0,0.93,0.01,1.37c-0.82-0.02-1.46-0.02-1.94-0.02c-0.48,0-1.19,0.01-2.12,0.02c0.04-0.52,0.06-1.19,0.06-1.99V49.5
		c-0.61-0.08-1.11-0.17-1.52-0.26c-0.41-0.09-0.91-0.23-1.5-0.43C101.5,46.93,101.44,45.64,101.37,44.94z"/>
	<g>
		<path class="st0" d="M22.25,33.41L22.25,33.41l0,109.84c0,7.73,6.27,14,14,14h152.25c7.73,0,14-6.27,14-14v-10.9V47.36
			c0-0.85-0.69-1.55-1.55-1.55H34.69C27.83,45.82,22.27,40.27,22.25,33.41z"/>
	</g>
	<g>
		<path class="st2" d="M157.72,132.52l-105.26,9.46c-4.29,0.39-8.08-2.78-8.46-7.07l-5.23-58.17c-0.39-4.29,2.78-8.08,7.07-8.46
			l105.26-9.46c4.29-0.39,8.08,2.78,8.46,7.07l5.23,58.17C165.17,128.34,162.01,132.13,157.72,132.52z"/>
		<g>
			<circle class="st4" cx="139.96" cy="121.88" r="8.16"/>
			<circle class="st5" cx="150.66" cy="120.91" r="8.16"/>
		</g>
		
			<rect x="39.63" y="78" transform="matrix(0.996 -0.0896 0.0896 0.996 -7.0872 9.2884)" class="st6" width="120.68" height="11.24"/>
		
			<rect x="109.24" y="95.79" transform="matrix(0.996 -0.0896 0.0896 0.996 -8.5732 12.0449)" class="st7" width="41.42" height="11.54"/>
	</g>
	<path class="st8" d="M129.64,164.65H18.11c-4.31,0-7.8-3.49-7.8-7.8V94.89c0-4.31,3.49-7.8,7.8-7.8h111.53c4.31,0,7.8,3.49,7.8,7.8
		v61.97C137.43,161.16,133.94,164.65,129.64,164.65z"/>
	<circle class="st3" cx="105.78" cy="148.69" r="8.55"/>
	<circle class="st9" cx="116.89" cy="148.69" r="8.55"/>
	<path class="st10" d="M40,110.47H26.58c-3.29,0-5.96-2.67-5.96-5.96v-4.65c0-3.29,2.67-5.96,5.96-5.96H40
		c3.29,0,5.96,2.67,5.96,5.96v4.65C45.96,107.8,43.29,110.47,40,110.47z"/>
	<rect x="22.53" y="142.12" class="st3" width="61.81" height="8.6"/>
	<rect x="20.62" y="117.63" class="st10" width="12.67" height="6.05"/>
	<rect x="112.37" y="117.63" class="st10" width="12.67" height="6.05"/>
	<rect x="39.88" y="117.63" class="st10" width="45.46" height="6.05"/>
	<rect x="90.63" y="117.63" class="st10" width="16.74" height="6.05"/>
	<path class="st0" d="M205.46,87.72h-18.85c-7.82,0-14.16,6.34-14.16,14.16v4.15c0,7.82,6.34,14.16,14.16,14.16h18.85
		c3.52,0,6.37-2.85,6.37-6.37V94.09C211.84,90.57,208.98,87.72,205.46,87.72z"/>
	<path class="st11" d="M196.04,103.96c0,4.13-3.35,7.48-7.48,7.48c-4.13,0-7.48-3.35-7.48-7.48s3.35-7.48,7.48-7.48
		C192.7,96.48,196.04,99.83,196.04,103.96z"/>
	<g>
		<g>
			<path class="st12" d="M30.89,50.88h-3.77c-0.2,0-0.37,0.16-0.37,0.37v1.4c0,0.2,0.16,0.37,0.37,0.37h3.77
				c0.2,0,0.37-0.16,0.37-0.37v-1.4C31.26,51.04,31.1,50.88,30.89,50.88z"/>
			<path class="st12" d="M38.49,50.88h-3.77c-0.2,0-0.37,0.16-0.37,0.37v1.4c0,0.2,0.16,0.37,0.37,0.37h3.77
				c0.2,0,0.37-0.16,0.37-0.37v-1.4C38.86,51.04,38.7,50.88,38.49,50.88z"/>
			<path class="st12" d="M46.17,50.88H42.4c-0.2,0-0.37,0.16-0.37,0.37v1.4c0,0.2,0.16,0.37,0.37,0.37h3.77
				c0.2,0,0.37-0.16,0.37-0.37v-1.4C46.54,51.04,46.38,50.88,46.17,50.88z"/>
		</g>
		<g>
			<path class="st12" d="M53.82,50.88h-3.77c-0.2,0-0.37,0.16-0.37,0.37v1.4c0,0.2,0.16,0.37,0.37,0.37h3.77
				c0.2,0,0.37-0.16,0.37-0.37v-1.4C54.19,51.04,54.03,50.88,53.82,50.88z"/>
			<path class="st12" d="M61.42,50.88h-3.77c-0.2,0-0.37,0.16-0.37,0.37v1.4c0,0.2,0.16,0.37,0.37,0.37h3.77
				c0.2,0,0.37-0.16,0.37-0.37v-1.4C61.79,51.04,61.63,50.88,61.42,50.88z"/>
			<path class="st12" d="M68.49,50.88h-3.77c-0.2,0-0.37,0.16-0.37,0.37v1.4c0,0.2,0.16,0.37,0.37,0.37h3.77
				c0.2,0,0.37-0.16,0.37-0.37v-1.4C68.86,51.04,68.7,50.88,68.49,50.88z"/>
		</g>
		<g>
			<path class="st12" d="M76.69,50.88h-3.77c-0.2,0-0.37,0.16-0.37,0.37v1.4c0,0.2,0.16,0.37,0.37,0.37h3.77
				c0.2,0,0.37-0.16,0.37-0.37v-1.4C77.06,51.04,76.89,50.88,76.69,50.88z"/>
			<path class="st12" d="M84.29,50.88h-3.77c-0.2,0-0.37,0.16-0.37,0.37v1.4c0,0.2,0.16,0.37,0.37,0.37h3.77
				c0.2,0,0.37-0.16,0.37-0.37v-1.4C84.65,51.04,84.49,50.88,84.29,50.88z"/>
			<path class="st12" d="M91.97,50.88h-3.77c-0.2,0-0.37,0.16-0.37,0.37v1.4c0,0.2,0.16,0.37,0.37,0.37h3.77
				c0.2,0,0.37-0.16,0.37-0.37v-1.4C92.34,51.04,92.17,50.88,91.97,50.88z"/>
		</g>
		<g>
			<path class="st12" d="M99.62,50.88h-3.77c-0.2,0-0.37,0.16-0.37,0.37v1.4c0,0.2,0.16,0.37,0.37,0.37h3.77
				c0.2,0,0.37-0.16,0.37-0.37v-1.4C99.99,51.04,99.82,50.88,99.62,50.88z"/>
			<path class="st12" d="M107.22,50.88h-3.77c-0.2,0-0.37,0.16-0.37,0.37v1.4c0,0.2,0.16,0.37,0.37,0.37h3.77
				c0.2,0,0.37-0.16,0.37-0.37v-1.4C107.58,51.04,107.42,50.88,107.22,50.88z"/>
			<path class="st12" d="M114.29,50.88h-3.77c-0.2,0-0.37,0.16-0.37,0.37v1.4c0,0.2,0.16,0.37,0.37,0.37h3.77
				c0.2,0,0.37-0.16,0.37-0.37v-1.4C114.65,51.04,114.49,50.88,114.29,50.88z"/>
		</g>
		<g>
			<path class="st12" d="M122.51,50.88h-3.77c-0.2,0-0.37,0.16-0.37,0.37v1.4c0,0.2,0.16,0.37,0.37,0.37h3.77
				c0.2,0,0.37-0.16,0.37-0.37v-1.4C122.88,51.04,122.72,50.88,122.51,50.88z"/>
			<path class="st12" d="M130.11,50.88h-3.77c-0.2,0-0.37,0.16-0.37,0.37v1.4c0,0.2,0.16,0.37,0.37,0.37h3.77
				c0.2,0,0.37-0.16,0.37-0.37v-1.4C130.48,51.04,130.31,50.88,130.11,50.88z"/>
			<path class="st12" d="M137.79,50.88h-3.77c-0.2,0-0.37,0.16-0.37,0.37v1.4c0,0.2,0.16,0.37,0.37,0.37h3.77
				c0.2,0,0.37-0.16,0.37-0.37v-1.4C138.16,51.04,138,50.88,137.79,50.88z"/>
		</g>
		<g>
			<path class="st12" d="M145.44,50.88h-3.77c-0.2,0-0.37,0.16-0.37,0.37v1.4c0,0.2,0.16,0.37,0.37,0.37h3.77
				c0.2,0,0.37-0.16,0.37-0.37v-1.4C145.81,51.04,145.65,50.88,145.44,50.88z"/>
			<path class="st12" d="M153.04,50.88h-3.77c-0.2,0-0.37,0.16-0.37,0.37v1.4c0,0.2,0.16,0.37,0.37,0.37h3.77
				c0.2,0,0.37-0.16,0.37-0.37v-1.4C153.41,51.04,153.24,50.88,153.04,50.88z"/>
			<path class="st12" d="M160.11,50.88h-3.77c-0.2,0-0.37,0.16-0.37,0.37v1.4c0,0.2,0.16,0.37,0.37,0.37h3.77
				c0.2,0,0.37-0.16,0.37-0.37v-1.4C160.48,51.04,160.31,50.88,160.11,50.88z"/>
		</g>
		<g>
			<path class="st12" d="M168.16,50.88h-3.77c-0.2,0-0.37,0.16-0.37,0.37v1.4c0,0.2,0.16,0.37,0.37,0.37h3.77
				c0.2,0,0.37-0.16,0.37-0.37v-1.4C168.53,51.04,168.36,50.88,168.16,50.88z"/>
			<path class="st12" d="M175.76,50.88h-3.77c-0.2,0-0.37,0.16-0.37,0.37v1.4c0,0.2,0.16,0.37,0.37,0.37h3.77
				c0.2,0,0.37-0.16,0.37-0.37v-1.4C176.13,51.04,175.96,50.88,175.76,50.88z"/>
			<path class="st12" d="M182.83,50.88h-3.77c-0.2,0-0.37,0.16-0.37,0.37v1.4c0,0.2,0.16,0.37,0.37,0.37h3.77
				c0.2,0,0.37-0.16,0.37-0.37v-1.4C183.2,51.04,183.03,50.88,182.83,50.88z"/>
		</g>
		<g>
			<path class="st12" d="M190.01,50.88h-3.77c-0.2,0-0.37,0.16-0.37,0.37v1.4c0,0.2,0.16,0.37,0.37,0.37h3.77
				c0.2,0,0.37-0.16,0.37-0.37v-1.4C190.38,51.04,190.22,50.88,190.01,50.88z"/>
		</g>
	</g>
	<g>
		<g>
			<path class="st12" d="M145.79,148.51h-3.77c-0.2,0-0.37,0.16-0.37,0.37v1.4c0,0.2,0.16,0.37,0.37,0.37h3.77
				c0.2,0,0.37-0.16,0.37-0.37v-1.4C146.16,148.67,145.99,148.51,145.79,148.51z"/>
			<path class="st12" d="M152.86,148.51h-3.77c-0.2,0-0.37,0.16-0.37,0.37v1.4c0,0.2,0.16,0.37,0.37,0.37h3.77
				c0.2,0,0.37-0.16,0.37-0.37v-1.4C153.23,148.67,153.06,148.51,152.86,148.51z"/>
		</g>
		<g>
			<path class="st12" d="M160.91,148.51h-3.77c-0.2,0-0.37,0.16-0.37,0.37v1.4c0,0.2,0.16,0.37,0.37,0.37h3.77
				c0.2,0,0.37-0.16,0.37-0.37v-1.4C161.28,148.67,161.12,148.51,160.91,148.51z"/>
			<path class="st12" d="M168.51,148.51h-3.77c-0.2,0-0.37,0.16-0.37,0.37v1.4c0,0.2,0.16,0.37,0.37,0.37h3.77
				c0.2,0,0.37-0.16,0.37-0.37v-1.4C168.88,148.67,168.71,148.51,168.51,148.51z"/>
			<path class="st12" d="M175.58,148.51h-3.77c-0.2,0-0.37,0.16-0.37,0.37v1.4c0,0.2,0.16,0.37,0.37,0.37h3.77
				c0.2,0,0.37-0.16,0.37-0.37v-1.4C175.95,148.67,175.78,148.51,175.58,148.51z"/>
		</g>
		<g>
			<path class="st12" d="M182.76,148.51h-3.77c-0.2,0-0.37,0.16-0.37,0.37v1.4c0,0.2,0.16,0.37,0.37,0.37h3.77
				c0.2,0,0.37-0.16,0.37-0.37v-1.4C183.13,148.67,182.97,148.51,182.76,148.51z"/>
			<path class="st12" d="M190.36,148.51h-3.77c-0.2,0-0.37,0.16-0.37,0.37v1.4c0,0.2,0.16,0.37,0.37,0.37h3.77
				c0.2,0,0.37-0.16,0.37-0.37v-1.4C190.73,148.67,190.57,148.51,190.36,148.51z"/>
		</g>
	</g>
	<g>
		<path class="st12" d="M195.7,61.95v-3.77c0-0.2-0.16-0.37-0.37-0.37h-1.4c-0.2,0-0.37,0.16-0.37,0.37v3.77
			c0,0.2,0.16,0.37,0.37,0.37h1.4C195.54,62.31,195.7,62.15,195.7,61.95z"/>
	</g>
	<g>
		<path class="st12" d="M195.12,55.13l-0.99-2.5c-0.22-0.55-0.84-0.82-1.39-0.6v0c-0.55,0.22-0.82,0.84-0.6,1.39l0.99,2.5
			c0.22,0.55,0.84,0.82,1.39,0.6l0,0C195.07,56.3,195.34,55.68,195.12,55.13z"/>
	</g>
	<g>
		<path class="st12" d="M195.7,69.03v-3.77c0-0.2-0.16-0.37-0.37-0.37h-1.4c-0.2,0-0.37,0.16-0.37,0.37v3.77
			c0,0.2,0.16,0.37,0.37,0.37h1.4C195.54,69.4,195.7,69.24,195.7,69.03z"/>
	</g>
	<g>
		<path class="st12" d="M195.7,126.77V123c0-0.2-0.16-0.37-0.37-0.37h-1.4c-0.2,0-0.37,0.16-0.37,0.37v3.77
			c0,0.2,0.16,0.37,0.37,0.37h1.4C195.54,127.14,195.7,126.97,195.7,126.77z"/>
	</g>
	<g>
		<path class="st12" d="M195.7,77v-3.77c0-0.2-0.16-0.37-0.37-0.37h-1.4c-0.2,0-0.37,0.16-0.37,0.37V77c0,0.2,0.16,0.37,0.37,0.37
			h1.4C195.54,77.37,195.7,77.2,195.7,77z"/>
	</g>
	<g>
		<path class="st12" d="M195.7,84.43v-3.77c0-0.2-0.16-0.37-0.37-0.37h-1.4c-0.2,0-0.37,0.16-0.37,0.37v3.77
			c0,0.2,0.16,0.37,0.37,0.37h1.4C195.54,84.8,195.7,84.63,195.7,84.43z"/>
	</g>
	<g>
		<path class="st12" d="M195.7,134.35v-3.77c0-0.2-0.16-0.37-0.37-0.37h-1.4c-0.2,0-0.37,0.16-0.37,0.37v3.77
			c0,0.2,0.16,0.37,0.37,0.37h1.4C195.54,134.71,195.7,134.55,195.7,134.35z"/>
	</g>
	<g>
		<path class="st12" d="M195.7,142.31v-3.77c0-0.2-0.16-0.37-0.37-0.37h-1.4c-0.2,0-0.37,0.16-0.37,0.37v3.77
			c0,0.2,0.16,0.37,0.37,0.37h1.4C195.54,142.68,195.7,142.52,195.7,142.31z"/>
	</g>
	<g>
		<path class="st12" d="M194.49,148.57l1.1-2.44c0.21-0.46,0-1-0.46-1.21l-0.28-0.13c-0.46-0.21-1,0-1.21,0.46l-1.1,2.44
			c-0.21,0.46,0,1,0.46,1.21l0.28,0.13C193.74,149.24,194.28,149.03,194.49,148.57z"/>
	</g>
	<path class="st1" d="M184.44,105.15l-0.45-0.32c-0.02-0.08-0.53-1.94,0.82-3.74c1.25-1.67,2.98-1.79,3.12-1.79
		c0.15,0.11,0.3,0.21,0.45,0.32c-0.54,0.41-0.8,0.7-0.94,0.9c-0.04,0.06-0.15,0.23-0.34,0.43c-0.17,0.17-0.31,0.28-0.33,0.3
		C186.55,101.42,185.93,102.37,184.44,105.15z"/>
	<line class="st1" x1="186.43" y1="102.49" x2="186.43" y2="102.49"/>
</g>
</svg>
