<?xml version="1.0" encoding="utf-8"?>
<!-- Generator: Adobe Illustrator 25.2.1, SVG Export Plug-In . SVG Version: 6.00 Build 0)  -->
<svg version="1.1" id="Layer_1" xmlns="http://www.w3.org/2000/svg" xmlns:xlink="http://www.w3.org/1999/xlink" x="0px" y="0px"
	 viewBox="0 0 181.61 167.85" style="enable-background:new 0 0 181.61 167.85;" xml:space="preserve">
<style type="text/css">
	.st0{fill:#2262E0;}
	.st1{fill:#FFFFFF;}
</style>
<g>
	<path class="st0" d="M160.72,51.83c-4.36,12.01-6.61,24.59-9.99,36.86c-1.32,4.79-2.76,9.54-3.95,14.36
		c-0.67,2.71-2.21,3.74-4.9,3.74c-26.13-0.03-52.25-0.05-78.38,0.02c-3.15,0.01-4.63-1.53-5.34-4.3c-5.1-19.9-10.2-39.8-15.29-59.7
		c-0.08-0.31,0.04-0.68-0.04-0.99C39.8,29.85,39.8,29.85,27.24,29.85c-3.66,0-7.32,0.02-10.98-0.01c-3.09-0.03-4.45-1.72-4.36-4.71
		c0.09-2.78,1.55-4.25,4.32-4.26c8.82-0.03,17.64,0.01,26.46-0.02c2.38-0.01,3.56,1.36,4.17,3.41c1.36,4.61,3.27,9.16,3.81,13.87
		c0.48,4.19,2.82,3.71,5.48,3.71c32.62,0,65.23,0.02,97.85-0.05c2.55-0.01,4.86,0.14,6.74,2.04
		C160.72,46.5,160.72,49.16,160.72,51.83z"/>
	<path class="st0" d="M65.83,129.07c-1.31-7.59,6.56-16.2,15.17-16.24c8.44-0.04,15.76,7.8,15.79,16.33
		c0.04,8.58-7.73,16.98-15.63,16.5C71.55,145.09,64.6,136.9,65.83,129.07z"/>
	<path class="st0" d="M146.73,129.29c-0.02,8.28-7.23,16.42-15.26,16.32c-8.63-0.1-16.56-7.13-15.82-17.17
		c0.59-8.11,7-15.43,14.92-15.68C138.89,112.5,146.76,120.54,146.73,129.29z"/>
	<path class="st1" d="M151.34,51.05c-3.9,14.93-7.84,29.64-11.47,44.44c-0.48,1.96-1.01,2.32-2.73,2.32
		c-22.94-0.04-45.87-0.11-68.81,0.08c-3.25,0.03-2.96-2.52-3.3-3.8c-3.59-13.48-6.85-27.05-10.26-40.58
		c-0.19-0.74-1.06-1.29-0.65-2.45C86.38,51.05,118.74,51.05,151.34,51.05z"/>
	<path class="st1" d="M87.8,128.68c0.03,3.93-3.17,7.96-6.38,8.05c-2.67,0.07-7.53-4.66-7.59-7.4c-0.07-2.95,4.62-7.64,7.58-7.56
		C84.28,121.84,87.78,125.62,87.8,128.68z"/>
	<path class="st1" d="M137.74,129.32c-0.04,3.48-3.44,7.38-6.47,7.4c-2.95,0.02-7.57-4.63-7.51-7.57c0.06-3,4.78-7.55,7.67-7.4
		C134.51,121.92,137.78,125.85,137.74,129.32z"/>
</g>
</svg>
