<?xml version="1.0" encoding="utf-8"?>
<!-- Generator: Adobe Illustrator 25.2.1, SVG Export Plug-In . SVG Version: 6.00 Build 0)  -->
<svg version="1.1" id="Layer_1" xmlns="http://www.w3.org/2000/svg" xmlns:xlink="http://www.w3.org/1999/xlink" x="0px" y="0px"
	 viewBox="0 0 137.43 139.71" style="enable-background:new 0 0 137.43 139.71;" xml:space="preserve">
<style type="text/css">
	.st0{fill:#FEFEFE;}
</style>
<path d="M3.28,14.24c7.99-0.03,15.97,0.01,23.96-0.02c2.16-0.01,3.23,1.21,3.77,3.04c1.23,4.11,2.96,8.17,3.45,12.36
	c0.44,3.74,2.56,3.31,4.96,3.31c29.54,0,59.07,0.02,88.61-0.04c2.31,0,4.4,0.13,6.1,1.82c0,2.37,0,4.75,0,7.12
	c-3.95,10.7-5.99,21.92-9.05,32.86c-1.19,4.27-2.5,8.5-3.57,12.8c-0.61,2.42-2,3.34-4.44,3.33c-23.66-0.03-47.32-0.05-70.98,0.02
	c-2.85,0.01-4.2-1.36-4.84-3.83c-4.62-17.74-9.24-35.48-13.85-53.21c-0.07-0.28,0.03-0.6-0.04-0.89
	c-2.73-10.66-2.74-10.66-14.11-10.66c-3.32,0-6.63,0.02-9.95-0.01"/>
<path d="M48.22,110.68c-1.19-6.76,5.94-14.44,13.74-14.48c7.64-0.04,14.27,6.95,14.3,14.56c0.04,7.65-7,15.14-14.15,14.71
	C53.4,124.96,47.11,117.66,48.22,110.68z"/>
<path d="M121.48,110.87c-0.02,7.39-6.55,14.63-13.82,14.55c-7.81-0.09-14.99-6.36-14.33-15.3c0.54-7.23,6.34-13.75,13.51-13.98
	C114.38,95.91,121.5,103.08,121.48,110.87z"/>
<path class="st0" d="M125.65,41.13c-3.53,13.31-7.1,26.42-10.39,39.61c-0.44,1.75-0.91,2.07-2.48,2.07
	c-20.77-0.03-41.54-0.1-62.31,0.07c-2.95,0.02-2.68-2.25-2.99-3.39c-3.25-12.02-6.2-24.11-9.29-36.17
	c-0.17-0.66-0.96-1.15-0.58-2.18C66.83,41.13,96.13,41.13,125.65,41.13z"/>
<path class="st0" d="M68.12,110.33c0.03,3.5-2.87,7.09-5.78,7.17c-2.42,0.07-6.82-4.15-6.87-6.6c-0.06-2.63,4.19-6.81,6.86-6.74
	C64.93,104.23,68.1,107.6,68.12,110.33z"/>
<path class="st0" d="M113.34,110.91c-0.04,3.1-3.12,6.58-5.86,6.6c-2.67,0.02-6.86-4.13-6.8-6.74c0.06-2.68,4.33-6.73,6.95-6.6
	C110.41,104.31,113.38,107.81,113.34,110.91z"/>
</svg>
