<?xml version="1.0" encoding="utf-8"?>
<!-- Generator: Adobe Illustrator 25.2.1, SVG Export Plug-In . SVG Version: 6.00 Build 0)  -->
<svg version="1.1" id="Layer_1" xmlns="http://www.w3.org/2000/svg" xmlns:xlink="http://www.w3.org/1999/xlink" x="0px" y="0px"
	 viewBox="0 0 137.43 139.71" style="enable-background:new 0 0 137.43 139.71;" xml:space="preserve">
<style type="text/css">
	.st0{fill:#FEFEFE;}
</style>
<g>
	<path d="M25.77,50.73c9.68-0.03,9.88,3.17,9.71,9.96c-0.27,10.81-0.05,21.64-0.08,32.45c-0.02,5.27-1.41,6.79-6.57,6.7
		c-6.92-0.13-13.96,1.17-20.21-3.82c-4.41-3.52-6.77-7.7-7.11-13.07c-0.26-4.14,0.23-8.34-0.11-12.48
		c-0.72-8.68,4.22-13.74,11-17.44c2.36-1.28,2.92-2.54,3.14-5.1c1.39-15.96,8.62-28.47,22.38-37.1c9.16-5.99,26.15-6.85,26.27-6.86
		c0.29-0.01,16.53-1.18,24.37,1.98c17.47,7.05,28.84,18.87,31.79,37.99c0.65,4.2,1.01,7.99,6.27,10.49
		c5.53,2.64,8.86,8.47,8.67,15.38c-0.1,3.49-0.26,7.01,0.03,10.48c0.58,7-2.46,12.93-8.08,15.65c-5.84,2.83-6.81,7.2-7.96,12.29
		c-2.48,11.04-9.59,17.9-20.64,19.47c-1.94,0.28-2.42,1.33-3.1,2.45c-3.75,6.26-9.07,8.76-16.58,7.66
		c-5.23-0.77-10.2-6.32-11.58-12.95c-0.97-4.64,2.82-12.03,7.65-14.92c5.75-3.43,16.1-1.09,19.73,5.1c1.49,2.55,2.94,2.35,4.81,1.73
		c4.84-1.61,10.78-10.29,10.75-15.26c-0.01-2.35-1.66-1.62-2.79-1.62c-4.4,0.01-6.44-1.64-6.31-6.5c0.3-12.14,0.24-24.3,0.02-36.45
		c-0.07-4,1.54-6.19,5.23-5.91c4.21,0.33,4.39-1.98,3.78-4.74c-3.55-16-12.8-27.37-28.94-31.08c-11.93-2.74-24.24-2.86-35.58,3.69
		C34.4,25.48,27.41,34.81,26.41,48.17C26.35,48.96,26.03,49.73,25.77,50.73z"/>
	<path class="st0" d="M111.31,75.24c0-2.32-0.32-4.7,0.09-6.95c0.38-2.12-1.9-5.39,1.54-6.24c3.97-0.98,8.19-0.11,10.23,3.75
		c3.35,6.35,3.23,13.16-0.11,19.52c-2.18,4.16-6.52,3.76-10.48,3.53c-1.87-0.11-1.22-1.66-1.24-2.66
		C111.27,82.54,111.31,78.89,111.31,75.24z"/>
	<path class="st0" d="M24.43,75.75c0,2.66,0,5.32,0,7.99c0,5.49-2.33,6.81-7.5,4.3c-3.53-1.72-5.72-4.39-5.45-8.46
		c0.25-3.89-0.75-7.82,0.87-11.7c1.86-4.45,5.85-6.79,10.47-6.01c2.23,0.38,1.56,1.77,1.59,2.91
		C24.48,68.43,24.43,72.09,24.43,75.75z"/>
	<path class="st0" d="M82.61,126.87c-2.41-0.15-4.31-1.27-4.14-3.81c0.17-2.43,2.01-4.25,4.48-4.08c2.38,0.17,3.44,2.05,3.44,4.57
		C86.39,126.26,85.05,127.07,82.61,126.87z"/>
</g>
</svg>
