<?xml version="1.0" encoding="utf-8"?>
<!-- Generator: Adobe Illustrator 25.2.1, SVG Export Plug-In . SVG Version: 6.00 Build 0)  -->
<svg version="1.1" id="Layer_1" xmlns="http://www.w3.org/2000/svg" xmlns:xlink="http://www.w3.org/1999/xlink" x="0px" y="0px"
	 viewBox="0 0 137.43 139.71" style="enable-background:new 0 0 137.43 139.71;" xml:space="preserve">
<style type="text/css">
	.st0{fill:#FEFEFE;}
</style>
<g>
	<path d="M68.45,137.39c-18.13,0-36.25,0-54.38,0c-8.94,0-10.91-2.38-8.98-11.11c2.83-12.82,8.4-24.49,17.6-33.75
		c9.82-9.87,21.89-15.96,35.98-18.16c18.16-2.84,34.4,1.29,48.94,12.11c12.94,9.64,21.26,22.42,24.27,38.44
		c0.15,0.79,0.25,1.59,0.45,2.36c1.93,7.33-0.12,10.1-7.51,10.1C106.04,137.39,87.24,137.39,68.45,137.39z"/>
	<path d="M68.36,70.49c-19.1,0.69-33.88-14.33-34.09-33.81C34.09,19.29,48.19,1.05,71.51,2.38c14.45,0.83,32.36,14.32,31.62,35.73
		C102.55,54.89,86.77,72.46,68.36,70.49z"/>
	<path class="st0" d="M68.71,128.4c-16.8,0-33.6-0.04-50.41,0.03c-3.32,0.01-4.95,0.16-3.66-4.49
		c6.39-22.94,21.97-36.33,44.32-41.22c22.71-4.97,47.8,6.96,58.93,28.89c2.09,4.12,4,8.26,5.29,12.83c1.14,4.03,0.02,4-3.07,3.99
		C102.98,128.37,85.85,128.4,68.71,128.4z"/>
	<path class="st0" d="M42.98,36.53C42.1,23.59,54.85,10.27,68.82,10.53C83.08,10.79,94.96,22.34,94.9,36.8
		c-0.05,13.67-12.17,25.81-26.6,25.85C55.89,62.69,41.9,49.7,42.98,36.53z"/>
</g>
</svg>
