<?xml version="1.0" standalone="no"?>
<!DOCTYPE svg PUBLIC "-//W3C//DTD SVG 20010904//EN"
 "http://www.w3.org/TR/2001/REC-SVG-20010904/DTD/svg10.dtd">
<svg version="1.0" xmlns="http://www.w3.org/2000/svg"
 width="150.000000pt" height="150.000000pt" viewBox="0 0 150.000000 150.000000"
 preserveAspectRatio="xMidYMid meet">

<g transform="translate(0.000000,150.000000) scale(0.100000,-0.100000)"
fill="#000000" stroke="none">
<path d="M556 1389 c-154 -54 -262 -168 -310 -328 -9 -30 -16 -72 -16 -92 0
-29 -5 -39 -21 -44 -29 -10 -87 -63 -105 -96 -9 -19 -14 -61 -14 -134 0 -126
17 -169 82 -212 36 -25 53 -28 133 -31 132 -5 125 -18 125 242 0 194 -2 214
-18 229 -10 10 -32 17 -49 17 l-30 0 8 52 c19 118 103 227 219 282 62 30 70
31 195 31 112 0 138 -3 187 -23 116 -47 218 -176 234 -294 7 -47 6 -48 -20
-48 -15 0 -36 -5 -47 -10 -18 -10 -19 -23 -19 -235 0 -212 1 -225 19 -235 11
-5 32 -10 46 -10 25 0 26 -2 20 -32 -15 -66 -54 -117 -107 -137 -24 -9 -29 -7
-44 18 -25 43 -64 61 -129 61 -53 0 -60 -3 -95 -38 -50 -50 -60 -97 -34 -160
25 -60 71 -92 133 -92 55 0 105 27 129 70 10 17 25 30 37 30 28 1 106 37 133
63 33 31 68 102 81 168 10 48 17 59 40 69 36 15 87 67 100 103 6 16 11 71 11
123 0 74 -4 103 -20 133 -20 41 -67 86 -99 96 -14 4 -20 19 -26 61 -22 175
-120 309 -285 388 -63 30 -69 31 -225 34 -140 2 -167 0 -219 -19z m-236 -694
l0 -135 -36 0 c-26 0 -43 8 -66 30 -29 30 -30 33 -26 111 3 74 6 83 31 105 18
15 41 24 63 24 l34 0 0 -135z m965 119 c61 -40 59 -210 -3 -243 -12 -6 -37
-11 -56 -11 l-36 0 0 135 0 135 35 0 c20 0 46 -7 60 -16z m-355 -568 c19 -23
8 -61 -18 -64 -44 -7 -67 32 -36 62 19 20 38 20 54 2z"/>
</g>
</svg>
