<?xml version="1.0" encoding="utf-8"?>
<!-- Generator: Adobe Illustrator 25.2.1, SVG Export Plug-In . SVG Version: 6.00 Build 0)  -->
<svg version="1.1" id="Layer_1" xmlns="http://www.w3.org/2000/svg" xmlns:xlink="http://www.w3.org/1999/xlink" x="0px" y="0px"
	 viewBox="0 0 88.5 87.6" style="enable-background:new 0 0 88.5 87.6;" xml:space="preserve">
<path d="M75.8,29.2h-63c-1.1,0-2-0.9-2-2v-3.1c0-1.1,0.9-2,2-2h63c1.1,0,2,0.9,2,2v3.1C77.8,28.3,76.9,29.2,75.8,29.2z"/>
<path d="M75.8,47.8h-63c-1.1,0-2-0.9-2-2v-3.1c0-1.1,0.9-2,2-2h63c1.1,0,2,0.9,2,2v3.1C77.8,47,76.9,47.8,75.8,47.8z"/>
<path d="M75.7,66.4h-63c-1.1,0-2-0.9-2-2v-3.1c0-1.1,0.9-2,2-2h63c1.1,0,2,0.9,2,2v3.1C77.7,65.6,76.8,66.4,75.7,66.4z"/>
</svg>
