<?xml version="1.0" encoding="utf-8"?>
<!-- Generator: Adobe Illustrator 25.2.1, SVG Export Plug-In . SVG Version: 6.00 Build 0)  -->
<svg version="1.1" id="Layer_1" xmlns="http://www.w3.org/2000/svg" xmlns:xlink="http://www.w3.org/1999/xlink" x="0px" y="0px"
	 viewBox="0 0 254.52 223.8" style="enable-background:new 0 0 254.52 223.8;" xml:space="preserve">
<style type="text/css">
	.st0{opacity:0.56;}
	.st1{fill:#D3BBA3;stroke:#000000;stroke-width:3;stroke-miterlimit:10;}
	.st2{fill:#F7F2EC;stroke:#000000;stroke-miterlimit:10;}
	.st3{fill:#F7F2EC;stroke:#3F3F3F;stroke-miterlimit:10;}
	.st4{fill:#D3BBA3;}
	.st5{fill:#F7F2EC;stroke:#303030;stroke-miterlimit:10;}
	.st6{fill:#4C4C4C;}
	.st7{fill:#F7F2EC;stroke:#ABABAB;stroke-miterlimit:10;}
	.st8{fill:#F7F2EC;stroke:#D3D3D3;stroke-miterlimit:10;}
	.st9{fill:#F7F2EC;stroke:#969696;stroke-miterlimit:10;}
	.st10{fill:#D3BBA3;stroke:#4C4C4C;stroke-miterlimit:10;}
	.st11{fill:#F7F2EC;stroke:#4C4C4C;stroke-width:0.5;stroke-miterlimit:10;}
</style>
<g>
	<g class="st0">
		<path class="st1" d="M120.56,46.98l-0.16,36.74l-0.04,10.5l-0.16,36.74c0,19.82-8.46,35.97-19.07,36.71
			c-0.25,0.02-0.5,0.02-0.76,0.02H38.22v-0.01c5.23-0.21,9.95-4.17,13.43-10.49c3.68-6.67,5.95-15.96,5.95-26.24l0.04-73.1
			l0.01-10.88c0-20.29,13.05-36.74,29.16-36.74c7.94,0,15.14,4.01,20.41,10.5c5.4,6.67,8.75,15.96,8.75,26.24L120.56,46.98
			L120.56,46.98z"/>
		<g>
			<path class="st1" d="M57.65,57.86l-0.01,18.47L57.63,81v10.46l-0.01,5.79v10.45l-0.01,4.68v10.45l-0.01,5.79v2.35
				c0,0.78-0.02,1.55-0.04,2.32c-0.07,1.98-0.21,3.9-0.45,5.78c-0.19,1.6-0.44,3.16-0.74,4.68c-0.41,2.02-0.9,3.95-1.49,5.78
				c-0.51,1.64-1.11,3.2-1.76,4.67c-0.46,1.06-0.95,2.07-1.48,3.02c-0.54,0.98-1.11,1.91-1.71,2.77c-1.29,1.86-2.71,3.44-4.23,4.67
				c-2.3,1.86-4.84,2.94-7.5,3.05c-0.15,0.01-0.29,0.01-0.44,0.01c-10.95,0-19.82-16.45-19.82-36.74v-73.1h39.71V57.86z"/>
			<g>
				<polygon class="st2" points="57.64,76.34 57.63,81 27.68,81 27.68,76.34 				"/>
				<rect x="27.68" y="86.79" class="st2" width="29.95" height="4.67"/>
				<rect x="27.68" y="97.25" class="st2" width="29.94" height="4.67"/>
				<polygon class="st2" points="57.62,107.7 57.61,112.37 27.68,112.37 27.68,107.7 				"/>
				<rect x="27.68" y="118.15" class="st2" width="29.93" height="4.67"/>
				<path class="st2" d="M57.61,128.61v2.35c0,0.78-0.02,1.55-0.04,2.32H27.68v-4.67L57.61,128.61L57.61,128.61z"/>
				<path class="st2" d="M57.12,139.06c-0.19,1.6-0.44,3.16-0.74,4.68H28.92c-0.31-1.51-0.56-3.07-0.74-4.68H57.12z"/>
				<path class="st2" d="M54.89,149.51c-0.51,1.64-1.11,3.2-1.76,4.67H32.15c-0.65-1.46-1.24-3.02-1.75-4.67H54.89z"/>
				<path class="st2" d="M49.95,159.97c-1.29,1.86-2.71,3.44-4.23,4.67h-6.14c-1.52-1.23-2.94-2.81-4.23-4.67H49.95z"/>
			</g>
		</g>
		<g>
			<path class="st1" d="M178.88,46.98h-62.91c0-10.28-3.35-19.57-8.75-26.24c-5.27-6.49-12.46-10.5-20.41-10.5h62.91
				C165.83,10.25,178.88,26.7,178.88,46.98z"/>
			<g>
				<path class="st1" d="M162.04,16.88h-54.13c-2.22-1.97-4.68-3.55-7.29-4.68h54.14C157.37,13.34,159.82,14.91,162.04,16.88z"/>
				<path class="st1" d="M169.97,27.33h-54.14c-0.82-1.65-1.76-3.21-2.78-4.67h54.14C168.21,24.12,169.14,25.68,169.97,27.33z"/>
			</g>
		</g>
	</g>
	<g>
		<path class="st3" d="M189.25,191.11h-81.27c-2.37,0-4.29-1.92-4.29-4.29V42.74c0-2.37,1.92-4.29,4.29-4.29h81.27
			c2.37,0,4.29,1.92,4.29,4.29v144.08C193.54,189.19,191.62,191.11,189.25,191.11z"/>
		<rect x="107.86" y="46.99" class="st4" width="81.52" height="128.75"/>
		<circle class="st4" cx="148.2" cy="183.42" r="5.43"/>
		<path class="st4" d="M157.46,44.25h-17.68c-0.86,0-1.56-0.7-1.56-1.56l0,0c0-0.86,0.7-1.56,1.56-1.56h17.68
			c0.86,0,1.56,0.7,1.56,1.56l0,0C159.02,43.56,158.32,44.25,157.46,44.25z"/>
	</g>
	<path class="st5" d="M178.88,71L178.88,71c-1.39,0-2.52,1.13-2.52,2.52v75.69c0,1.39,1.13,2.52,2.52,2.52l0,0
		c1.39,0,2.52-1.13,2.52-2.52V73.52C181.39,72.12,180.27,71,178.88,71z"/>
	<path class="st6" d="M106.62,32.05c-1.83,0.13-3.63,0.37-5.39,0.73c-3.08,2.24-5.08,5.88-5.08,9.97v145.7
		c0.48,0.12,0.98,0.21,1.48,0.28c-0.01-0.05-0.01-0.1-0.01-0.15V42.75C97.61,37.39,101.51,32.92,106.62,32.05z"/>
</g>
<g>
	<g>
		<rect x="8.75" y="147.91" class="st4" width="126.73" height="69.04"/>
	</g>
	<g>
		<g>
			<path class="st7" d="M135.48,216.95H8.75v-69.04h126.73L135.48,216.95L135.48,216.95z M13.93,211.77h116.36v-58.68H13.93V211.77z
				"/>
		</g>
	</g>
	<g>
		<ellipse class="st8" cx="72.11" cy="182.43" rx="18.91" ry="23.59"/>
	</g>
	<g>
		<g>
			<path class="st4" d="M79.22,192.27c-1.27,1.25-2.97,2.03-5.1,2.34v3.74h-3.43v-3.67c-1.5-0.11-2.9-0.4-4.19-0.88
				c-1.29-0.47-2.42-1.11-3.38-1.92l1.48-3.16c1.95,1.53,4.06,2.37,6.33,2.53v-7c-1.5-0.38-2.77-0.8-3.8-1.26
				c-1.03-0.46-1.9-1.15-2.59-2.05c-0.7-0.91-1.04-2.09-1.04-3.55c0-1.21,0.3-2.32,0.91-3.32c0.61-1,1.45-1.83,2.54-2.49
				c1.09-0.66,2.34-1.08,3.75-1.26v-3.74h3.43v3.7c1.3,0.16,2.53,0.47,3.67,0.94s2.11,1.07,2.9,1.78l-1.48,3.16
				c-1.64-1.35-3.41-2.15-5.32-2.42v7.31c1.5,0.38,2.75,0.79,3.74,1.23s1.82,1.09,2.49,1.97s1.01,2.02,1.01,3.43
				C81.12,189.49,80.49,191.03,79.22,192.27z M68.63,179.04c0.54,0.48,1.3,0.89,2.29,1.23v-6.5c-0.97,0.2-1.72,0.6-2.27,1.18
				c-0.55,0.58-0.82,1.31-0.82,2.19C67.82,177.92,68.09,178.56,68.63,179.04z M76.04,189.95c0.49-0.55,0.74-1.26,0.74-2.14
				c0-0.7-0.25-1.26-0.74-1.68c-0.49-0.43-1.21-0.79-2.15-1.08v6.03C74.82,190.87,75.54,190.5,76.04,189.95z"/>
		</g>
	</g>
	<g>
		<g>
			<path class="st9" d="M119.65,147.91h15.2v15.2C126.46,163.11,119.65,156.31,119.65,147.91z"/>
		</g>
		<g>
			<path class="st9" d="M23.95,147.91H8.75v15.2C17.15,163.11,23.95,156.31,23.95,147.91z"/>
		</g>
		<g>
			<path class="st9" d="M119.65,217h15.2v-15.2C126.46,201.8,119.65,208.61,119.65,217z"/>
		</g>
		<g>
			<path class="st9" d="M23.95,217H8.75v-15.2C17.15,201.8,23.95,208.61,23.95,217z"/>
		</g>
	</g>
</g>
<g>
	<path class="st10" d="M184.82,136.63h58.94c4.31,0,7.8-3.49,7.8-7.8V86.3c0-4.31-3.49-7.8-7.8-7.8h-58.94c-4.31,0-7.8,3.49-7.8,7.8
		v42.54C177.03,133.14,180.52,136.63,184.82,136.63z"/>
	<circle class="st11" cx="184.25" cy="124.35" r="6.41"/>
	<path class="st11" d="M230.8,96.02h7.07c3.29,0,5.96-2.67,5.96-5.96v-0.5c0-3.29-2.67-5.96-5.96-5.96h-7.07
		c-3.29,0-5.96,2.67-5.96,5.96v0.5C224.84,93.35,227.51,96.02,230.8,96.02z"/>
	<rect x="196.07" y="119.75" class="st11" width="46.33" height="6.45"/>
	<rect x="234.33" y="101.4" class="st11" width="9.5" height="4.53"/>
	<rect x="195.33" y="101.4" class="st11" width="34.07" height="4.53"/>
	<rect x="179.79" y="101.4" class="st11" width="12.55" height="4.53"/>
</g>
</svg>
