<?xml version="1.0" encoding="utf-8"?>
<!-- Generator: Adobe Illustrator 25.2.1, SVG Export Plug-In . SVG Version: 6.00 Build 0)  -->
<svg version="1.1" id="Layer_1" xmlns="http://www.w3.org/2000/svg" xmlns:xlink="http://www.w3.org/1999/xlink" x="0px" y="0px"
	 viewBox="0 0 254.52 223.8" style="enable-background:new 0 0 254.52 223.8;" xml:space="preserve">
<style type="text/css">
	.st0{fill:#D3BBA3;}
	.st1{fill:#F2E6DC;}
	.st2{fill:#F7F2EC;}
	.st3{fill:#373F45;}
</style>
<g>
	<g>
		<g>
			<path class="st0" d="M130.27,211.71c-1.31,0.69-4.65,0.77-5.92,0C40.72,161,54.5,33.44,54.5,33.44l72.76-21.9l72.86,21.9
				C200.12,33.44,213.14,168.1,130.27,211.71z"/>
			<path class="st1" d="M127.2,193.74c-0.95,0-1.89-0.15-2.44-0.49c-15.55-9.62-28.21-23.41-37.65-40.97
				c-7.54-14.04-13.05-30.51-16.36-48.96c-5.64-31.4-2.93-58-2.9-58.26c0.01-0.1,0.08-0.18,0.17-0.21l59.15-18.18
				c0.05-0.01,0.1-0.01,0.15,0l59.23,18.18c0.1,0.03,0.17,0.11,0.17,0.21c0.03,0.28,2.58,28.34-3.13,60.47
				c-3.36,18.87-8.87,35.44-16.39,49.24c-9.4,17.26-21.99,30.21-37.4,38.49C129.25,193.56,128.22,193.74,127.2,193.74z M68.34,45.28
				c-0.22,2.28-2.49,27.92,2.91,57.97c5.19,28.89,18.73,67.89,53.77,89.58c0.98,0.61,3.6,0.51,4.56-0.01
				c34.71-18.65,48.27-57.8,53.53-87.36c5.48-30.78,3.34-57.82,3.14-60.18l-59-18.1L68.34,45.28z"/>
		</g>
	</g>
	<g>
		<path class="st2" d="M97.08,93.91v22.91c0,16.38,12.84,30.25,29.21,30.67c16.93,0.44,30.79-13.21,30.79-30.11V93.91H97.08z
			 M130.08,118.21v12.71h-5v-12.71c-3.16-1.13-5.27-4.33-4.53-7.89c0.56-2.67,2.75-4.75,5.42-5.31c4.67-0.97,8.79,2.42,8.79,6.74
			C134.76,114.71,132.81,117.23,130.08,118.21z"/>
		<path class="st3" d="M154.19,87.36c-0.14,0-0.25-0.11-0.25-0.25c0-14.64-11.91-26.55-26.55-26.55
			c-14.64,0-26.55,11.91-26.55,26.55c0,0.14-0.11,0.25-0.25,0.25c-0.14,0-0.25-0.11-0.25-0.25c0-14.91,12.13-27.05,27.05-27.05
			c14.91,0,27.05,12.13,27.05,27.05C154.44,87.24,154.33,87.36,154.19,87.36z"/>
	</g>
</g>
</svg>
