<?xml version="1.0" encoding="utf-8"?>
<!-- Generator: Adobe Illustrator 25.2.1, SVG Export Plug-In . SVG Version: 6.00 Build 0)  -->
<svg version="1.1" id="Layer_1" xmlns="http://www.w3.org/2000/svg" xmlns:xlink="http://www.w3.org/1999/xlink" x="0px" y="0px"
	 viewBox="0 0 254.52 223.8" style="enable-background:new 0 0 254.52 223.8;" xml:space="preserve">
<style type="text/css">
	.st0{opacity:0.17;fill:#010101;}
	.st1{fill:#D3BBA3;stroke:#000000;stroke-miterlimit:10;}
	.st2{fill:#E6E6E5;}
	.st3{fill:#B3B3B3;}
	.st4{opacity:0.28;fill:#010101;}
	.st5{fill:#B79E88;stroke:#000000;stroke-miterlimit:10;}
	.st6{fill:#E6E6E5;stroke:#000000;stroke-miterlimit:10;}
	.st7{fill:#DAE7E7;}
	.st8{fill:#E6E6E5;stroke:#000000;stroke-width:0.5;stroke-miterlimit:10;}
	.st9{fill:#163E4A;}
</style>
<path class="st0" d="M197.13,22l-0.1-0.12h-9.48H61.44l0.31,0.33H60.5c-7.89,0-14.28,6.39-14.28,14.28v144.33H34.26l-0.1,0.12
	c-5.89,7.06-5.89,17.32,0,24.39l0.1,0.12c0,0,4.54,0,11.97,0h123.62h0.18c8.58,0,15.54-6.96,15.54-15.54V46.84c0,0,0-0.12,0-0.33
	h11.46l0.1-0.12C203.02,39.32,203.02,29.06,197.13,22z"/>
<g>
	<g>
		<path class="st1" d="M57,42.98h135.59l0.1-0.12c5.89-7.06,5.89-17.32,0-24.39l-0.1-0.12h-9.48H57l0.67,0.72
			c6.29,6.77,6.05,17.32-0.55,23.79L57,42.98z"/>
		<path class="st1" d="M165.59,201.92H41.79V32.95c0-7.89,6.39-14.28,14.28-14.28h121.12c0,0,12.57-0.75,12.32,0
			c-8.82,0.17-8.37,24.63-8.37,24.63v143.07C181.13,194.96,174.17,201.92,165.59,201.92z"/>
		<path class="st1" d="M165.41,201.92c-5.52,0-135.59,0-135.59,0l-0.1-0.12c-5.89-7.06-5.89-17.32,0-24.39l0.1-0.12h135.59
			l-0.67,0.72C158.45,184.78,157.38,196.33,165.41,201.92C165.41,201.92,170.93,201.92,165.41,201.92z"/>
	</g>
	<rect x="71.91" y="46" class="st2" width="84.23" height="7.09"/>
	<rect x="130.2" y="166.45" class="st3" width="37.66" height="2.31"/>
	<rect x="60.18" y="66.41" class="st2" width="107.68" height="2.88"/>
	<rect x="60.18" y="80.54" class="st2" width="107.68" height="2.88"/>
	<rect x="60.18" y="94.68" class="st2" width="107.68" height="2.88"/>
	<rect x="60.18" y="108.81" class="st2" width="107.68" height="2.88"/>
	<rect x="60.18" y="122.95" class="st2" width="107.68" height="2.88"/>
	<rect x="60.18" y="151.22" class="st2" width="107.68" height="2.88"/>
	<rect x="60.18" y="137.08" class="st2" width="107.68" height="2.88"/>
</g>
<path class="st4" d="M246.99,56.7l-1.24-0.76l-0.33-0.2l-0.6-0.37l1.93-3.14c0.12-0.2,0.06-0.45-0.14-0.58l-10.64-6.54
	c-0.2-0.12-0.45-0.06-0.58,0.14l-1.93,3.14l-0.71-0.44c-0.16-0.1-0.37-0.05-0.46,0.11l-0.83,1.35c-0.1,0.16-0.05,0.37,0.11,0.46
	l0.71,0.44l-16.67,27.12c-0.12,0.2-0.06,0.45,0.14,0.58l0.97,0.6l-36.36,59.16l-0.75-0.46c-0.27-0.17-0.63-0.08-0.8,0.19l-0.01,0.01
	c-0.17,0.27-0.08,0.63,0.19,0.8l0.84,0.52l-0.19,0.43l-0.89-0.55c-0.27-0.17-0.63-0.08-0.8,0.19l-0.01,0.01
	c-0.17,0.27-0.08,0.63,0.19,0.8l1.02,0.63l-3.38,7.55l0,0l-3.73,8.32l-2.05,1.29l-1.86,7.92l1.03,0.63l6.4-5.25l0.34-2.23l6.08-6.87
	l0,0l0.01-0.01l5.5-6.23l0.91,0.56c0.27,0.17,0.63,0.08,0.8-0.19l0.01-0.01c0.17-0.27,0.08-0.63-0.19-0.8l-0.74-0.45l0.31-0.36
	l0.67,0.41c0.27,0.17,0.63,0.08,0.8-0.19l0.01-0.01c0.17-0.27,0.08-0.63-0.19-0.8l-0.55-0.34l34.68-56.43l1.68-2.73l0.71,0.43
	c0.2,0.12,0.45,0.06,0.58-0.14l16.67-27.12l0.31,0.19c0.16,0.1,0.21,0.3,0.11,0.46l-10.95,17.82c-0.1,0.16-0.05,0.37,0.11,0.46
	l1.28,0.79c0.16,0.1,0.37,0.05,0.46-0.11l12.13-19.74C247.2,57,247.15,56.79,246.99,56.7z"/>
<g>
	<polygon class="st1" points="179.04,150.09 172.8,146.34 177.06,136.54 217.6,68.91 226.62,74.31 186.11,141.9 	"/>
	<path class="st5" d="M222.7,82.47l-10.71-6.42c-0.2-0.12-0.26-0.38-0.14-0.57l19.42-32.4c0.12-0.2,0.38-0.26,0.57-0.14l10.71,6.42
		c0.2,0.12,0.26,0.38,0.14,0.57l-19.42,32.4C223.15,82.52,222.9,82.59,222.7,82.47z"/>
	<path class="st1" d="M241.73,53.65l-0.33-0.2l-12.74-7.64c-0.16-0.1-0.37-0.04-0.46,0.12l-0.81,1.36c-0.1,0.16-0.04,0.37,0.12,0.46
		l12.46,7.47c0.16,0.1,0.21,0.3,0.12,0.46l-10.75,17.94c-0.1,0.16-0.04,0.37,0.12,0.46l1.29,0.78c0.16,0.1,0.37,0.04,0.46-0.12
		l11.91-19.88c0.1-0.16,0.04-0.37-0.12-0.46L241.73,53.65z"/>
	<polygon class="st6" points="173.04,157.03 169.16,154.7 177.06,136.54 186.08,141.95 	"/>
	<polygon class="st7" points="173.04,157.03 169.16,154.7 167.13,156.02 165.35,163.95 166.39,164.58 172.72,159.26 	"/>
	<path class="st8" d="M186.24,142.93l-10.34-6.2c-0.27-0.16-0.36-0.52-0.2-0.79l0.01-0.01c0.16-0.27,0.52-0.36,0.79-0.2l10.34,6.2
		c0.27,0.16,0.36,0.52,0.2,0.79l-0.01,0.01C186.87,143.01,186.52,143.1,186.24,142.93z"/>
	<path class="st8" d="M185.4,144.34l-10.34-6.2c-0.27-0.16-0.36-0.52-0.2-0.79l0.01-0.01c0.16-0.27,0.52-0.36,0.79-0.2l10.34,6.2
		c0.27,0.16,0.36,0.52,0.2,0.79l-0.01,0.01C186.03,144.41,185.68,144.5,185.4,144.34z"/>
	<g>
		<path class="st9" d="M169.57,159.88c-0.24,0.4-0.76,0.53-1.16,0.29c-0.4-0.24-0.53-0.76-0.29-1.16c0.24-0.4,0.76-0.53,1.16-0.29
			C169.68,158.95,169.81,159.47,169.57,159.88z"/>
		
			<rect x="164.65" y="161.84" transform="matrix(0.5142 -0.8577 0.8577 0.5142 -57.7147 222.2027)" class="st9" width="5.26" height="0.41"/>
	</g>
	<polygon class="st4" points="212.97,76.63 221.99,82.04 217,90.36 	"/>
</g>
</svg>
